<?xml version="1.0" standalone="no"?>
<!DOCTYPE svg PUBLIC "-//W3C//DTD SVG 20010904//EN" "http://www.w3.org/TR/2001/REC-SVG-20010904/DTD/svg10.dtd">
<svg version="1.0" xmlns="http://www.w3.org/2000/svg" width="400.000000pt" height="400.000000pt"
    viewBox="0 0 400.000000 400.000000" preserveAspectRatio="xMidYMid meet">
    <metadata>
        Created by potrace 1.15, written by Peter Selinger 2001-2017
    </metadata>
    <g transform="translate(0.000000,400.000000) scale(0.100000,-0.100000)" fill="#FFFFFF" stroke="none">
        <path d="M348 3981 c-158 -51 -280 -173 -328 -329 -20 -63 -20 -96 -20 -1652
0 -1550 0 -1589 20 -1651 48 -157 172 -281 328 -329 63 -20 96 -20 1652 -20
1556 0 1589 0 1652 20 156 48 280 172 328 329 20 62 20 101 20 1651 0 1556 0
1589 -20 1652 -37 121 -134 239 -240 293 -115 58 -9 55 -1744 54 -1511 0
-1594 -1 -1648 -18z m2922 -900 c0 -4 -10 -16 -22 -24 -13 -9 -41 -30 -63 -47
-22 -16 -58 -42 -80 -56 -22 -15 -46 -34 -54 -41 -8 -8 -30 -25 -50 -38 -20
-13 -77 -55 -128 -92 -50 -37 -156 -115 -235 -173 -78 -57 -147 -108 -153
-112 -28 -23 -95 -71 -130 -94 -22 -15 -42 -30 -45 -34 -3 -4 -21 -18 -40 -31
-36 -24 -48 -33 -182 -132 -42 -31 -82 -57 -88 -57 -6 0 -44 24 -83 53 -40 29
-101 75 -137 101 -107 78 -113 83 -160 118 -25 18 -103 76 -175 127 -71 52
-134 98 -140 103 -5 4 -57 42 -115 85 -96 70 -186 136 -250 183 -14 10 -65 49
-115 85 -49 36 -91 70 -93 75 -2 6 464 10 1267 10 703 0 1271 -4 1271 -9z
m-2658 -204 c14 -12 52 -40 83 -62 54 -37 111 -80 180 -133 17 -12 48 -34 70
-50 22 -15 42 -29 45 -32 3 -3 64 -48 135 -100 72 -52 150 -110 175 -128 25
-19 56 -42 70 -52 14 -10 45 -33 70 -52 25 -18 57 -41 71 -50 14 -9 33 -23 40
-31 8 -8 32 -26 54 -41 35 -23 102 -71 130 -94 6 -4 59 -43 118 -86 149 -108
144 -108 329 25 78 57 163 119 188 137 62 46 84 63 165 122 39 28 81 60 95 70
14 10 57 41 95 69 39 28 75 54 80 59 6 4 62 46 125 91 63 46 156 114 205 151
50 37 121 89 158 116 38 27 81 59 95 71 15 13 30 23 35 23 4 0 7 -433 7 -961
l0 -962 -36 -33 -35 -34 -1359 0 -1359 0 -35 34 -36 33 0 962 c0 528 3 961 8
961 4 0 19 -10 34 -23z" />
    </g>
</svg>